<?xml version="1.0" encoding="utf-8"?>
<!-- Generator: Adobe Illustrator 24.1.2, SVG Export Plug-In . SVG Version: 6.00 Build 0)  -->
<svg version="1.1" id="Layer_1" xmlns="http://www.w3.org/2000/svg" xmlns:xlink="http://www.w3.org/1999/xlink" x="0px" y="0px"
	 viewBox="0 0 566.93 566.93" style="enable-background:new 0 0 566.93 566.93;" xml:space="preserve">
<style type="text/css">
	.st0{fill:#007E80;}
</style>
<g>
	<path class="st0" d="M235.17,133.05H222.5v34.84h-46.71V29.33h66.71c12.8,0,23.95,2.11,33.45,6.33
		c9.5,4.23,16.83,10.29,21.97,18.21c5.15,7.92,7.72,17.16,7.72,27.71c0,9.9-2.25,18.54-6.73,25.93
		c-4.49,7.39-10.95,13.26-19.4,17.62l29.1,42.75h-49.88L235.17,133.05z M253.78,69.61c-3.17-2.84-7.92-4.26-14.25-4.26H222.5v32.46
		h17.02c6.33,0,11.09-1.42,14.25-4.26c3.17-2.84,4.75-6.83,4.75-11.98C258.53,76.44,256.94,72.45,253.78,69.61z"/>
	<path class="st0" d="M323.25,29.33h46.71v138.56h-46.71V29.33z"/>
	<path class="st0" d="M392.53,29.33h68.29c15.44,0,29.06,2.8,40.88,8.41c11.81,5.61,20.98,13.63,27.51,24.05
		c6.53,10.43,9.8,22.7,9.8,36.82c0,14.12-3.27,26.39-9.8,36.82c-6.53,10.43-15.71,18.44-27.51,24.05
		c-11.81,5.61-25.44,8.41-40.88,8.41h-68.29V29.33z M458.84,131.46c10.03,0,18.04-2.87,24.05-8.61c6-5.74,9.01-13.82,9.01-24.25
		c0-10.42-3-18.51-9.01-24.25c-6.01-5.74-14.02-8.61-24.05-8.61h-19.6v65.72H458.84z"/>
</g>
<g>
	<g>
		<path class="st0" d="M122.73,252.08c-5.45-2.93-9.74-7-12.86-12.2c-3.12-5.2-4.68-11.07-4.68-17.63c0-6.55,1.56-12.43,4.68-17.63
			c3.12-5.2,7.4-9.26,12.86-12.19c5.45-2.93,11.58-4.4,18.39-4.4c5.73,0,10.92,1.01,15.55,3.02c4.63,2.02,8.52,4.92,11.68,8.7
			l-9.83,9.07c-4.48-5.16-10.02-7.75-16.64-7.75c-4.1,0-7.75,0.9-10.97,2.69c-3.21,1.8-5.72,4.3-7.52,7.51
			c-1.8,3.22-2.69,6.87-2.69,10.97c0,4.1,0.9,7.75,2.69,10.97c1.8,3.21,4.3,5.72,7.52,7.51c3.21,1.8,6.87,2.69,10.97,2.69
			c6.62,0,12.16-2.61,16.64-7.85l9.83,9.08c-3.15,3.84-7.06,6.77-11.72,8.79c-4.66,2.02-9.86,3.03-15.6,3.03
			C134.28,256.48,128.18,255.01,122.73,252.08z"/>
	</g>
	<g>
		<path class="st0" d="M220.9,241.16h-30.72l-5.86,14.18h-15.69l29.49-66.17h15.13l29.59,66.17h-16.07L220.9,241.16z M216.08,229.54
			l-10.49-25.33l-10.49,25.33H216.08z"/>
	</g>
	<g>
		<path class="st0" d="M249.73,189.17h30.06c7.18,0,13.53,1.37,19.05,4.11c5.51,2.74,9.8,6.6,12.86,11.58
			c3.06,4.98,4.58,10.77,4.58,17.39s-1.53,12.42-4.58,17.39c-3.06,4.98-7.34,8.84-12.86,11.58c-5.52,2.74-11.86,4.11-19.05,4.11
			h-30.06V189.17z M279.04,242.77c6.62,0,11.89-1.84,15.83-5.53c3.94-3.69,5.91-8.68,5.91-14.98c0-6.3-1.97-11.3-5.91-14.98
			c-3.94-3.69-9.22-5.53-15.83-5.53h-13.99v41.03H279.04z"/>
	</g>
	<g>
		<path class="st0" d="M379.05,243.05v12.29h-51.24v-66.17h50.01v12.29h-34.79v14.37h30.72v11.91h-30.72v15.31H379.05z"/>
	</g>
	<g>
		<path class="st0" d="M451.46,255.34l-0.09-39.7l-19.47,32.71h-6.9l-19.38-31.86v38.85h-14.37v-66.17h12.67l24.77,41.12
			l24.39-41.12h12.57l0.19,66.17H451.46z"/>
	</g>
	<g>
		<path class="st0" d="M513.29,231.9v23.44h-15.31v-23.63l-25.62-42.54h16.26l17.68,29.4l17.68-29.4H539L513.29,231.9z"/>
	</g>
</g>
<g>
	<path class="st0" d="M73.96,188.89H58.78l-29.61,66.43h15.75l5.46-13.36l15.9-9.19l15.53,8.98l5.72,13.57h16.14L73.96,188.89z
		 M65.89,203.97l5.18,12.29h-10.2L65.89,203.97z M73.1,222.1l-6.83,3.95l-6.84-3.95H73.1z M53.97,233.14l2.47-6.04l4,2.31
		L53.97,233.14z M72.11,229.41l3.62-2.09l2.33,5.52L72.11,229.41z"/>
</g>
<path class="st0" d="M127.16,127.54c-5.43,2.2-11.11,3.27-17.05,3.22c-10.03-0.09-18.02-3.32-23.97-9.71
	c-5.95-6.39-8.88-14.79-8.79-25.21c0.09-10.69,3.2-19.11,9.32-25.26c6.12-6.15,14.33-9.18,24.62-9.09
	c3.92,0.03,7.66,0.61,11.22,1.73c8.64,2.71,17.96-1.05,21.72-9.29l8.85-19.42c-2.36-1.36-4.82-2.59-7.39-3.71
	c-10.72-4.64-22.87-7.02-36.46-7.14c-15.04-0.13-28.56,2.83-40.56,8.86c-12,6.03-21.37,14.53-28.13,25.49
	c-6.76,10.96-10.2,23.44-10.32,37.42c-0.12,13.99,3.11,26.52,9.68,37.59c6.57,11.08,15.7,19.73,27.39,25.97
	c11.69,6.23,24.93,9.42,39.71,9.54c9.16,0.08,18.5-1.02,27.99-3.28l33.01-72.41l-22.81-0.19c-9.8-0.08-17.82,7.8-17.9,17.6
	L127.16,127.54z"/>
</svg>
