<?xml version="1.0" encoding="utf-8"?>
<!-- Generator: Adobe Illustrator 24.1.2, SVG Export Plug-In . SVG Version: 6.00 Build 0)  -->
<svg version="1.1" id="Layer_1" xmlns="http://www.w3.org/2000/svg" xmlns:xlink="http://www.w3.org/1999/xlink" x="0px" y="0px"
	 viewBox="0 0 566.93 566.93" style="enable-background:new 0 0 566.93 566.93;" xml:space="preserve">
<style type="text/css">
	.st0{fill:#008E61;}
	.st1{fill:#007E80;}
</style>
<path class="st0" d="M241.5,281.89c-10.83,4.5-22.18,6.74-34.07,6.74c-20.07,0-36.11-6.34-48.13-19.02
	c-12.02-12.68-18.02-29.44-18.02-50.31c0-21.39,6.07-38.29,18.22-50.7c12.14-12.41,28.52-18.62,49.12-18.62
	c7.85,0,15.34,1.09,22.49,3.27c17.33,5.28,35.92-2.41,43.3-18.96l17.39-39.01c-4.74-2.67-9.68-5.11-14.85-7.3
	c-21.53-9.11-45.89-13.67-73.08-13.67c-30.11,0-57.11,6.14-81.01,18.42c-23.9,12.28-42.52,29.45-55.85,51.49
	C53.67,166.29,47,191.31,47,219.3c0,27.99,6.67,53.02,20.01,75.06c13.33,22.05,31.75,39.22,55.26,51.5
	c23.5,12.28,50.04,18.42,79.62,18.42c18.34,0,37-2.35,55.95-7.05l64.83-145.46h-45.65c-19.62,0-35.52,15.9-35.52,35.52V281.89z"/>
<path class="st0" d="M393.45,211.93h-64.17L204.14,492.68h66.55l23.06-56.46l67.22-38.82l65.63,37.94l24.18,57.33H519L393.45,211.93
	z M359.34,275.69l21.89,51.95h-43.11L359.34,275.69z M389.82,352.28l-28.85,16.68l-28.9-16.68H389.82z M308.97,398.94l10.42-25.52
	l16.89,9.76L308.97,398.94z M385.61,383.18l15.3-8.84l9.84,23.35L385.61,383.18z"/>
<path class="st1" d="M342.28,211.77"/>
<path class="st1" d="M322.67,211.77"/>
</svg>
